<?xml version="1.0" standalone="no"?>
<!DOCTYPE svg PUBLIC "-//W3C//DTD SVG 20010904//EN"
 "http://www.w3.org/TR/2001/REC-SVG-20010904/DTD/svg10.dtd">
<svg version="1.0" xmlns="http://www.w3.org/2000/svg"
 width="2128.000000pt" height="2128.000000pt" viewBox="0 0 2128.000000 2128.000000"
 preserveAspectRatio="xMidYMid meet">
<metadata>
Created by potrace 1.11, written by Peter Selinger 2001-2013
</metadata>
<g transform="translate(0.000000,2128.000000) scale(0.100000,-0.100000)"
fill="#000000" stroke="none">
<path d="M18119 14566 c-73 -19 -127 -58 -243 -174 l-108 -110 -38 38 c-20 20
-64 50 -96 66 l-59 29 -800 0 -800 0 -63 -29 c-78 -36 -149 -112 -177 -188
-17 -47 -20 -85 -21 -338 -1 -157 -3 -292 -3 -300 -1 -14 -88 -16 -781 -16
l-779 0 -5 26 c-3 14 -8 44 -11 68 -14 89 -88 181 -183 228 l-57 29 -1505 3
c-1669 3 -1555 7 -1652 -63 -55 -40 -99 -101 -123 -170 -15 -45 -17 -105 -17
-580 0 -291 3 -546 7 -565 16 -97 94 -197 184 -238 69 -32 124 -37 374 -36
l207 1 0 -149 0 -148 -192 -1 c-221 -1 -222 -1 -300 -36 -98 -44 -166 -134
-185 -248 -13 -81 -8 -1042 6 -1095 17 -62 76 -145 128 -181 80 -56 109 -61
333 -63 l205 -2 0 -454 0 -453 -30 -4 c-16 -2 -57 -7 -90 -13 -33 -5 -85 -12
-115 -16 -30 -3 -58 -8 -61 -10 -3 -1 -28 -6 -55 -9 -215 -26 -288 -50 -362
-119 -66 -61 -95 -133 -96 -236 0 -76 7 -162 20 -223 2 -12 6 -40 9 -62 7 -64
15 -126 25 -190 5 -33 12 -85 15 -115 3 -30 8 -66 10 -80 3 -14 7 -47 10 -75
3 -27 8 -61 10 -75 3 -14 7 -45 10 -70 13 -107 16 -127 27 -165 32 -109 127
-198 244 -228 38 -10 70 -10 144 -1 94 12 181 24 210 29 8 2 51 8 95 15 104
15 131 19 280 44 50 8 108 17 130 21 22 3 103 17 180 30 77 13 156 27 175 30
19 3 46 8 60 10 32 7 47 9 150 29 113 20 122 22 215 40 44 9 91 18 105 21 14
3 59 12 100 20 41 8 84 17 95 19 11 2 97 21 192 41 l172 37 48 -49 c26 -27
115 -120 198 -207 82 -86 165 -167 185 -180 82 -56 204 -73 294 -41 45 15 93
39 418 208 65 33 120 59 122 56 2 -2 7 -49 11 -104 4 -55 9 -113 10 -130 2
-16 6 -68 10 -115 12 -157 29 -203 101 -280 63 -68 139 -99 251 -105 496 -26
1399 -37 1669 -22 147 9 303 27 352 41 9 3 34 7 54 10 20 3 81 20 135 37 294
93 428 190 554 402 27 45 49 85 49 90 0 4 9 26 19 50 36 77 72 203 86 302 4
22 8 51 10 65 3 14 7 142 11 285 3 143 7 261 8 262 1 2 59 -70 129 -160 69
-89 137 -174 149 -188 13 -15 43 -51 68 -80 167 -200 426 -471 636 -668 120
-112 171 -136 289 -135 115 0 144 14 290 136 11 9 81 67 155 128 74 62 146
122 160 134 14 12 68 57 120 100 52 43 117 97 144 120 28 22 55 40 61 39 6 -2
33 18 60 43 28 26 73 62 100 82 28 19 52 38 55 42 3 3 34 26 70 50 85 56 109
79 106 99 -15 79 -19 97 -26 106 -4 6 -18 39 -29 75 -23 70 -61 153 -74 158
-4 2 -5 8 -1 13 3 5 1 9 -5 9 -5 0 -12 8 -16 19 -3 10 -14 29 -25 42 -30 37
-34 42 -59 77 -30 42 -126 139 -266 267 -132 120 -366 354 -490 490 -49 54
-97 106 -105 114 -56 61 -290 339 -290 344 0 2 69 73 153 158 205 208 349 364
497 539 90 107 97 115 140 170 19 25 40 50 46 55 6 6 55 69 110 140 54 72 101
132 104 135 12 10 42 82 36 87 -3 3 6 25 19 49 14 24 22 44 20 44 -3 0 4 9 15
20 21 21 21 50 -2 160 -6 30 -11 63 -10 73 0 11 -4 15 -11 10 -9 -5 -9 -3 0 8
7 8 11 48 10 99 -1 80 -2 86 -29 109 l-28 24 25 19 c32 25 43 46 51 95 3 21
12 50 20 65 8 16 12 28 9 28 -3 0 -1 8 4 18 5 9 12 34 15 56 4 21 9 43 13 49
3 5 2 8 -3 5 -5 -4 -9 54 -10 135 -1 213 -11 485 -19 496 -3 6 -3 11 2 11 4 0
9 66 10 147 3 136 1 151 -21 199 -26 57 -87 130 -117 139 -11 4 -19 15 -19 29
0 33 -26 103 -56 150 -42 67 -98 102 -487 310 -170 91 -660 333 -822 406 -27
12 -97 45 -154 71 -57 27 -105 49 -106 49 -2 0 -33 14 -70 31 -36 17 -76 33
-88 35 -48 11 -124 11 -168 0z m-4645 -2565 c21 -13 56 -29 79 -37 40 -12 38
-13 -66 -13 l-107 -1 1 67 2 67 26 -30 c15 -17 44 -40 65 -53z m2241 -157 c0
-57 -2 -104 -5 -104 -3 0 -38 26 -77 58 -39 31 -100 78 -134 105 l-64 47 140
-1 140 -1 0 -104z m2508 93 c-4 -7 -17 -23 -29 -37 -114 -132 -167 -190 -174
-190 -4 0 -13 15 -21 33 -7 17 -30 68 -51 111 -21 44 -38 83 -38 88 0 4 72 8
160 7 121 0 159 -3 153 -12z m-4035 -1211 c15 -13 95 -79 177 -146 83 -66 159
-129 170 -138 87 -72 141 -117 145 -122 3 -3 32 -28 65 -55 101 -85 105 -88
105 -96 0 -3 -57 -44 -127 -89 -71 -46 -147 -96 -171 -112 -24 -15 -45 -28
-47 -28 -2 0 -23 -13 -47 -29 -24 -16 -59 -38 -78 -49 -19 -11 -84 -50 -145
-86 -60 -36 -114 -66 -120 -66 -5 0 -21 16 -34 35 -29 43 -112 99 -171 115
-52 14 -139 15 -184 1 -26 -8 -160 -40 -235 -56 -33 -8 -54 -13 -83 -20 l-26
-7 -1 264 c0 145 3 268 7 273 4 6 96 10 242 11 261 0 299 7 380 66 87 65 129
157 136 298 1 30 2 56 3 58 3 6 13 0 39 -22z"/>
<path d="M1404 14204 c-78 -15 -160 -59 -208 -111 -13 -14 -37 -51 -53 -82
l-28 -56 -3 -1735 c-2 -1724 -2 -1735 18 -1798 l21 -64 -40 -40 c-22 -22 -53
-65 -68 -96 l-28 -57 0 -500 0 -500 32 -65 c37 -76 77 -118 151 -158 l53 -29
-53 -2 c-64 -2 -72 -3 -123 -20 -40 -14 -105 -59 -138 -96 -32 -37 -66 -113
-75 -167 -7 -49 -5 -78 11 -193 3 -22 13 -96 22 -165 19 -146 22 -168 29 -218
3 -20 10 -75 16 -122 6 -47 13 -96 15 -110 2 -14 7 -52 10 -85 13 -115 33
-211 53 -257 26 -56 96 -126 159 -159 43 -22 60 -24 168 -24 66 0 181 4 255 9
74 4 160 10 190 11 60 4 200 13 295 20 33 2 101 7 150 10 50 3 117 7 150 10
131 11 243 19 410 29 55 4 118 9 140 11 22 2 76 7 120 10 44 3 105 8 135 10
30 3 87 7 125 10 83 6 182 14 245 20 25 2 77 7 115 10 39 3 95 8 125 10 30 3
80 7 110 10 30 2 80 7 110 10 30 2 87 7 125 10 39 3 90 7 115 10 25 2 72 7
105 10 116 10 171 15 230 21 33 3 80 8 105 10 25 1 70 6 100 9 69 7 116 12
210 20 41 3 91 8 110 10 19 2 64 7 100 10 36 3 76 8 90 10 43 6 183 17 239 19
l55 1 3 -55 c8 -145 74 -259 184 -316 74 -38 80 -39 699 -61 274 -10 1061 -10
1180 0 52 4 102 8 110 9 44 2 230 42 297 64 239 79 375 193 463 388 30 65 72
217 86 306 3 25 8 54 9 65 2 11 6 45 10 75 4 30 8 66 11 80 6 40 17 305 18
442 l1 126 30 -13 c17 -7 145 -63 285 -125 140 -62 278 -117 305 -124 108 -26
230 7 305 84 69 69 314 429 463 678 53 89 97 164 97 166 0 1 26 49 58 107 126
226 316 640 330 721 4 24 7 277 7 563 -2 477 -3 524 -20 565 -43 107 -135 189
-240 214 -16 4 -291 8 -610 8 l-580 -1 56 52 c31 29 96 88 144 132 192 174
531 507 773 761 88 92 142 158 160 194 l27 55 0 550 0 550 -27 55 c-53 107
-143 173 -255 188 -32 4 -940 6 -2018 6 l-1960 -1 -43 24 c-24 14 -58 30 -75
36 -22 7 -716 11 -2253 12 -1222 0 -2225 0 -2230 -1z m4808 -2574 c21 -14 38
-29 38 -33 0 -4 -28 -7 -62 -5 l-62 3 -1 46 -2 47 26 -17 c14 -9 43 -27 63
-41z m356 -2243 l-3 -582 -125 3 c-68 2 -128 6 -132 8 -4 3 -8 28 -8 55 0 56
-28 144 -60 190 -20 27 -21 33 -9 57 11 21 15 114 17 439 l3 412 160 0 159 0
-2 -582z"/>
<path d="M20252 12450 c0 -14 2 -19 5 -12 2 6 2 18 0 25 -3 6 -5 1 -5 -13z"/>
</g>
</svg>
